<?xml version="1.0" encoding="UTF-8" standalone="no"?><svg xmlns="http://www.w3.org/2000/svg" xmlns:xlink="http://www.w3.org/1999/xlink" contentStyleType="text/css" height="531px" preserveAspectRatio="none" style="width:665px;height:531px;background:#FFFFFF;" version="1.1" viewBox="0 0 665 531" width="665px" zoomAndPan="magnify"><defs/><g><!--MD5=[27503d4a615ca086b3dbcb311fd72257]
cluster 新增视角--><g id="cluster_新增视角"><polygon fill="#90EE90" points="245,369,307,369,314,391.4883,515,391.4883,515,454,245,454,245,369" style="stroke:#000000;stroke-width:1.5;"/><line style="stroke:#000000;stroke-width:1.5;" x1="245" x2="314" y1="391.4883" y2="391.4883"/><text fill="#000000" font-family="sans-serif" font-size="14" font-weight="bold" lengthAdjust="spacing" textLength="56" x="249" y="384.5352">新增视角</text></g><rect fill="#F1F1F1" height="34.1328" rx="12.5" ry="12.5" style="stroke:#181818;stroke-width:0.5;" width="92" x="261" y="404"/><text fill="#000000" font-family="sans-serif" font-size="12" lengthAdjust="spacing" textLength="72" x="271" y="425.6016">多号商家视角</text><rect fill="#F1F1F1" height="34.1328" rx="12.5" ry="12.5" style="stroke:#181818;stroke-width:0.5;" width="80" x="419" y="404"/><text fill="#000000" font-family="sans-serif" font-size="12" lengthAdjust="spacing" textLength="60" x="429" y="425.6016">授权号视角</text><ellipse cx="388" cy="16" fill="#222222" rx="10" ry="10" style="stroke:none;stroke-width:1.0;"/><rect fill="#F1F1F1" height="34.1328" rx="12.5" ry="12.5" style="stroke:#181818;stroke-width:0.5;" width="104" x="336" y="67"/><text fill="#000000" font-family="sans-serif" font-size="12" lengthAdjust="spacing" textLength="84" x="346" y="88.6016">用户进入生意通</text><g id="elem_#5"><polygon fill="#F1F1F1" points="388,142,400,154,388,166,376,154,388,142" style="stroke:#181818;stroke-width:0.5;"/></g><rect fill="#F1F1F1" height="34.1328" rx="12.5" ry="12.5" style="stroke:#181818;stroke-width:0.5;" width="44" x="335" y="220"/><text fill="#000000" font-family="sans-serif" font-size="12" lengthAdjust="spacing" textLength="24" x="345" y="241.6016">商家</text><g id="elem_#10"><polygon fill="#F1F1F1" points="307,295,319,307,307,319,295,307,307,295" style="stroke:#181818;stroke-width:0.5;"/></g><rect fill="#F1F1F1" height="34.1328" rx="12.5" ry="12.5" style="stroke:#181818;stroke-width:0.5;" width="92" x="137" y="404"/><text fill="#000000" font-family="sans-serif" font-size="12" lengthAdjust="spacing" textLength="72" x="147" y="425.6016">普通商家视角</text><rect fill="#F1F1F1" height="34.1328" rx="12.5" ry="12.5" style="stroke:#181818;stroke-width:0.5;" width="44" x="421" y="220"/><text fill="#000000" font-family="sans-serif" font-size="12" lengthAdjust="spacing" textLength="24" x="431" y="241.6016">达人</text><g id="elem_#20"><polygon fill="#F1F1F1" points="459,295,471,307,459,319,447,307,459,295" style="stroke:#181818;stroke-width:0.5;"/></g><rect fill="#F1F1F1" height="34.1328" rx="12.5" ry="12.5" style="stroke:#181818;stroke-width:0.5;" width="92" x="531" y="404"/><text fill="#000000" font-family="sans-serif" font-size="12" lengthAdjust="spacing" textLength="72" x="541" y="425.6016">普通达人视角</text><rect fill="#F1F1F1" height="34.1328" rx="12.5" ry="12.5" style="stroke:#181818;stroke-width:0.5;" width="68" x="391" y="491"/><text fill="#000000" font-family="sans-serif" font-size="12" lengthAdjust="spacing" textLength="48" x="401" y="512.6016">分销他人</text><rect fill="#F1F1F1" height="34.1328" rx="12.5" ry="12.5" style="stroke:#181818;stroke-width:0.5;" width="92" x="7" y="491"/><text fill="#000000" font-family="sans-serif" font-size="12" lengthAdjust="spacing" textLength="72" x="17" y="512.6016">自建商品自卖</text><rect fill="#F1F1F1" height="34.1328" rx="12.5" ry="12.5" style="stroke:#181818;stroke-width:0.5;" width="104" x="119" y="491"/><text fill="#000000" font-family="sans-serif" font-size="12" lengthAdjust="spacing" textLength="84" x="129" y="512.6016">自建商品被分销</text><rect fill="#F1F1F1" height="34.1328" rx="12.5" ry="12.5" style="stroke:#181818;stroke-width:0.5;" width="92" x="479" y="491"/><text fill="#000000" font-family="sans-serif" font-size="12" lengthAdjust="spacing" textLength="72" x="489" y="512.6016">售卖三方商品</text><rect fill="#F1F1F1" height="34.1328" rx="12.5" ry="12.5" style="stroke:#181818;stroke-width:0.5;" width="68" x="591" y="491"/><text fill="#000000" font-family="sans-serif" font-size="12" lengthAdjust="spacing" textLength="48" x="601" y="512.6016">授权售卖</text><rect fill="#F1F1F1" height="34.1328" rx="12.5" ry="12.5" style="stroke:#181818;stroke-width:0.5;" width="128" x="243" y="491"/><text fill="#000000" font-family="sans-serif" font-size="12" lengthAdjust="spacing" textLength="108" x="253" y="512.6016">自建商品被授权售卖</text><!--MD5=[7b430951dd87701bce62c3d921f799e3]
link start to 用户进入生意通--><g id="link_start_用户进入生意通"><path d="M388,26.46 C388,35.3 388,48.85 388,60.46 " fill="none" id="start-to-用户进入生意通" style="stroke:#181818;stroke-width:1.0;"/><polygon fill="#181818" points="388,65.16,392,56.16,388,60.16,384,56.16,388,65.16" style="stroke:#181818;stroke-width:1.0;"/></g><!--MD5=[553531240023f9167003bbf0674bb08b]
link 用户进入生意通 to #5--><g id="link_用户进入生意通_#5"><path d="M388,101.46 C388,111.65 388,124.73 388,135.17 " fill="none" id="用户进入生意通-to-#5" style="stroke:#181818;stroke-width:1.0;"/><polygon fill="#181818" points="388,140.07,392,131.07,388,135.07,384,131.07,388,140.07" style="stroke:#181818;stroke-width:1.0;"/><text fill="#000000" font-family="sans-serif" font-size="11" lengthAdjust="spacing" textLength="88" x="279.65" y="131.9164">是否有自建商品？</text></g><!--MD5=[5eb99413686dd05c64eb1b5ff3ae052a]
link #5 to 商家--><g id="link_#5_商家"><path d="M382.99,161.27 C378.43,167.28 371.84,176.78 368,186 C364.37,194.71 361.86,204.81 360.16,213.63 " fill="none" id="#5-to-商家" style="stroke:#181818;stroke-width:1.0;"/><polygon fill="#181818" points="359.33,218.3,364.8359,210.1339,360.2006,213.3764,356.9581,208.741,359.33,218.3" style="stroke:#181818;stroke-width:1.0;"/><text fill="#000000" font-family="sans-serif" font-size="11" lengthAdjust="spacing" textLength="22" x="369" y="197.6348">true</text></g><!--MD5=[76c75161aaa556004d236282a76180d1]
link 商家 to #10--><g id="link_商家_#10"><path d="M344.9,254.46 C335.84,266.78 323.67,283.33 315.6,294.31 " fill="none" id="商家-to-#10" style="stroke:#181818;stroke-width:1.0;"/><polygon fill="#181818" points="312.68,298.28,321.2301,293.3918,315.6387,294.2493,314.7811,288.6579,312.68,298.28" style="stroke:#181818;stroke-width:1.0;"/><text fill="#000000" font-family="sans-serif" font-size="11" lengthAdjust="spacing" textLength="143" x="144.177" y="293.3327">所选时间段是否有授权关系？</text></g><!--MD5=[7946680bc42bff2ffafb8543c4a88dfc]
link #10 to 多号商家视角--><g id="link_#10_多号商家视角"><path d="M307,319.56 C307,337.85 307,373.79 307,397.35 " fill="none" id="#10-to-多号商家视角" style="stroke:#181818;stroke-width:1.0;"/><polygon fill="#181818" points="307,402.12,311,393.12,307,397.12,303,393.12,307,402.12" style="stroke:#181818;stroke-width:1.0;"/><text fill="#000000" font-family="sans-serif" font-size="11" lengthAdjust="spacing" textLength="22" x="308" y="350.6348">true</text></g><!--MD5=[8188f0d301ecee9733fad45bb12a4156]
link #10 to 普通商家视角--><g id="link_#10_普通商家视角"><path d="M301.13,313.26 C290.51,322.76 267.42,343.47 248,361 C233.92,373.71 218.16,388.01 205.69,399.35 " fill="none" id="#10-to-普通商家视角" style="stroke:#181818;stroke-width:1.0;"/><polygon fill="#181818" points="202.03,402.68,211.3766,399.5749,205.7258,399.3124,205.9884,393.6616,202.03,402.68" style="stroke:#181818;stroke-width:1.0;"/><text fill="#000000" font-family="sans-serif" font-size="11" lengthAdjust="spacing" textLength="25" x="273" y="350.6348">false</text></g><!--MD5=[02dc7bb43c717d09161ed24b88d36632]
link #5 to 达人--><g id="link_#5_达人"><path d="M392.69,161.91 C400.51,173.42 416.51,196.99 428.38,214.47 " fill="none" id="#5-to-达人" style="stroke:#181818;stroke-width:1.0;"/><polygon fill="#181818" points="431.07,218.42,429.3059,208.7304,428.2538,214.2886,422.6956,213.2364,431.07,218.42" style="stroke:#181818;stroke-width:1.0;"/><text fill="#000000" font-family="sans-serif" font-size="11" lengthAdjust="spacing" textLength="25" x="418" y="197.6348">false</text></g><!--MD5=[fda3d2d081091f9a0a9786560162d17a]
link 达人 to #20--><g id="link_达人_#20"><path d="M446.87,254.46 C449.45,265.4 452.8,279.67 455.33,290.42 " fill="none" id="达人-to-#20" style="stroke:#181818;stroke-width:1.0;"/><polygon fill="#181818" points="456.44,295.13,458.2786,285.4543,455.298,290.2622,450.4901,287.2815,456.44,295.13" style="stroke:#181818;stroke-width:1.0;"/><text fill="#000000" font-family="sans-serif" font-size="11" lengthAdjust="spacing" textLength="132" x="306.808" y="289.806">是否为某个商家的授权号？</text></g><!--MD5=[454cb772c1ec0a0814dd9e016d214900]
link #20 to 授权号视角--><g id="link_#20_授权号视角"><path d="M459,319.56 C459,337.85 459,373.79 459,397.35 " fill="none" id="#20-to-授权号视角" style="stroke:#181818;stroke-width:1.0;"/><polygon fill="#181818" points="459,402.12,463,393.12,459,397.12,455,393.12,459,402.12" style="stroke:#181818;stroke-width:1.0;"/><text fill="#000000" font-family="sans-serif" font-size="11" lengthAdjust="spacing" textLength="22" x="460" y="350.6348">true</text></g><!--MD5=[73582a6a120470b6e2e8a7c9a77dd7fd]
link #20 to 普通达人视角--><g id="link_#20_普通达人视角"><path d="M464.69,313.4 C480.79,328.69 527.31,372.83 555.17,399.28 " fill="none" id="#20-to-普通达人视角" style="stroke:#181818;stroke-width:1.0;"/><polygon fill="#181818" points="558.71,402.64,554.9344,393.5436,555.0829,399.1985,549.428,399.347,558.71,402.64" style="stroke:#181818;stroke-width:1.0;"/><text fill="#000000" font-family="sans-serif" font-size="11" lengthAdjust="spacing" textLength="25" x="504" y="350.6348">false</text></g><!--MD5=[0104edd6cfe2ab877893d792883897c5]
link 多号商家视角 to 授权号视角--><g id="link_多号商家视角_授权号视角"><path d="M353.43,421 C372.1,421 393.59,421 412.28,421 " fill="none" id="多号商家视角-to-授权号视角" style="stroke:#181818;stroke-width:1.0;"/><polygon fill="#181818" points="417,421,408,417,412,421,408,425,417,421" style="stroke:#181818;stroke-width:1.0;"/><text fill="#000000" font-family="sans-serif" font-size="11" lengthAdjust="spacing" textLength="44" x="364" y="415.6348">可以查看</text></g><!--MD5=[059f6fbeff8b08c8c361464d73a93904]
link 多号商家视角 to 分销他人--><g id="link_多号商家视角_分销他人"><path d="M329.75,438.39 C349.01,452.26 376.69,472.2 397.25,487.01 " fill="none" id="多号商家视角-to-分销他人" style="stroke:#181818;stroke-width:1.0;"/><polygon fill="#181818" points="401.09,489.78,396.1337,481.2691,397.0359,486.8536,391.4514,487.7558,401.09,489.78" style="stroke:#181818;stroke-width:1.0;"/></g><!--MD5=[6b139d6b7915ead064229e57906b532c]
link 授权号视角 to 分销他人--><g id="link_授权号视角_分销他人"><path d="M452.44,438.39 C447.18,451.56 439.72,470.19 433.91,484.72 " fill="none" id="授权号视角-to-分销他人" style="stroke:#181818;stroke-width:1.0;"/><polygon fill="#181818" points="432.1,489.26,439.1564,482.3893,433.957,484.6176,431.7286,479.4181,432.1,489.26" style="stroke:#181818;stroke-width:1.0;"/></g><!--MD5=[83d8135ec2e13ace89afe73ccc4f9c10]
link 普通达人视角 to 分销他人--><g id="link_普通达人视角_分销他人"><path d="M551.33,438.41 C539.48,445.82 525.15,454.57 512,462 C496.31,470.87 478.7,480.11 463.45,487.89 " fill="none" id="普通达人视角-to-分销他人" style="stroke:#181818;stroke-width:1.0;"/><polygon fill="#181818" points="459.29,490,469.1263,489.5025,463.7506,487.7411,465.512,482.3654,459.29,490" style="stroke:#181818;stroke-width:1.0;"/></g><!--MD5=[cdf3660ef2200ffe19d0ddc9ecb7cdb3]
link 普通商家视角 to 分销他人--><g id="link_普通商家视角_分销他人"><path d="M188.99,438.43 C193.93,449.53 202.08,463.48 214,471 C277.22,510.89 308.28,473.67 381,491 C382.19,491.28 383.38,491.59 384.59,491.91 " fill="none" id="普通商家视角-to-分销他人" style="stroke:#181818;stroke-width:1.0;"/><polygon fill="#181818" points="389.19,493.24,381.6526,486.9007,384.3862,491.8532,379.4337,494.5868,389.19,493.24" style="stroke:#181818;stroke-width:1.0;"/></g><!--MD5=[0ed67e9c09081127b955b6f07d748370]
link 多号商家视角 to 自建商品自卖--><g id="link_多号商家视角_自建商品自卖"><path d="M283.39,438.37 C270.72,446.5 254.54,455.87 239,462 C183.93,483.72 166.37,476.42 109,491 C107.82,491.3 106.64,491.6 105.44,491.92 " fill="none" id="多号商家视角-to-自建商品自卖" style="stroke:#181818;stroke-width:1.0;"/><polygon fill="#181818" points="100.85,493.13,110.5762,494.6796,105.6816,491.8435,108.5177,486.9489,100.85,493.13" style="stroke:#181818;stroke-width:1.0;"/></g><!--MD5=[168fd1c8e0ef91c4cefc88be8c059268]
link 普通商家视角 to 自建商品自卖--><g id="link_普通商家视角_自建商品自卖"><path d="M157.93,438.39 C136.62,452.32 105.96,472.37 83.28,487.2 " fill="none" id="普通商家视角-to-自建商品自卖" style="stroke:#181818;stroke-width:1.0;"/><polygon fill="#181818" points="79.26,489.83,88.9801,488.2428,83.4421,487.0895,84.5954,481.5515,79.26,489.83" style="stroke:#181818;stroke-width:1.0;"/></g><!--MD5=[bcdc8915a05c59a24bfad9174cd4ca49]
link 多号商家视角 to 自建商品被分销--><g id="link_多号商家视角_自建商品被分销"><path d="M296.18,438.42 C288.53,448.94 277.46,462.22 265,471 C254.1,478.68 241.35,484.98 228.81,490.05 " fill="none" id="多号商家视角-to-自建商品被分销" style="stroke:#181818;stroke-width:1.0;"/><polygon fill="#181818" points="224.48,491.73,234.3181,492.1902,229.1389,489.915,231.4141,484.7359,224.48,491.73" style="stroke:#181818;stroke-width:1.0;"/></g><!--MD5=[692e9bc3a66a59bb941b72b96de9e7fb]
link 普通商家视角 to 自建商品被分销--><g id="link_普通商家视角_自建商品被分销"><path d="M180.69,438.39 C178.84,451.44 176.24,469.86 174.2,484.33 " fill="none" id="普通商家视角-to-自建商品被分销" style="stroke:#181818;stroke-width:1.0;"/><polygon fill="#181818" points="173.52,489.16,178.7391,480.8077,174.2191,484.2091,170.8177,479.6891,173.52,489.16" style="stroke:#181818;stroke-width:1.0;"/></g><!--MD5=[8010484b622aea818835c015f17e5dfc]
link 多号商家视角 to 售卖三方商品--><g id="link_多号商家视角_售卖三方商品"><path d="M348.67,438.38 C367.15,445.63 389.15,454.26 409,462 C431.16,470.64 455.72,480.18 476.52,488.24 " fill="none" id="多号商家视角-to-售卖三方商品" style="stroke:#181818;stroke-width:1.0;"/><polygon fill="#181818" points="481.15,490.03,474.1901,483.0615,476.4844,488.2322,471.3137,490.5265,481.15,490.03" style="stroke:#181818;stroke-width:1.0;"/></g><!--MD5=[749e788f8ec75f9190758424b4a10a9f]
link 授权号视角 to 售卖三方商品--><g id="link_授权号视角_售卖三方商品"><path d="M471.73,438.39 C482.23,451.91 497.2,471.19 508.6,485.87 " fill="none" id="授权号视角-to-售卖三方商品" style="stroke:#181818;stroke-width:1.0;"/><polygon fill="#181818" points="511.39,489.47,509.0148,479.9119,508.3173,485.5255,502.7036,484.8281,511.39,489.47" style="stroke:#181818;stroke-width:1.0;"/></g><!--MD5=[cb2c2fbe7c6909936fb1d1975eec604d]
link 普通达人视角 to 售卖三方商品--><g id="link_普通达人视角_售卖三方商品"><path d="M574.16,438.3 C571.92,448.26 568.12,460.98 562,471 C558.71,476.39 554.42,481.55 549.94,486.18 " fill="none" id="普通达人视角-to-售卖三方商品" style="stroke:#181818;stroke-width:1.0;"/><polygon fill="#181818" points="546.5,489.57,555.7136,486.0902,550.0569,486.056,550.0912,480.3992,546.5,489.57" style="stroke:#181818;stroke-width:1.0;"/></g><!--MD5=[c1c995a8ce842ae3ecd6458ba0f8cc2d]
link 普通商家视角 to 售卖三方商品--><g id="link_普通商家视角_售卖三方商品"><path d="M204.38,438.35 C216.53,446.79 232.39,456.46 248,462 C341.36,495.14 372,470.89 469,491 C470.19,491.25 471.39,491.5 472.6,491.77 " fill="none" id="普通商家视角-to-售卖三方商品" style="stroke:#181818;stroke-width:1.0;"/><polygon fill="#181818" points="477.21,492.85,469.3615,486.9001,472.3422,491.708,467.5343,494.6886,477.21,492.85" style="stroke:#181818;stroke-width:1.0;"/></g><!--MD5=[68f910b4567527d4dc7b7cb86d7ddb7f]
link 授权号视角 to 授权售卖--><g id="link_授权号视角_授权售卖"><path d="M482.29,438.33 C493.69,445.98 507.78,454.94 521,462 C541.44,472.92 565.1,483.32 584.68,491.37 " fill="none" id="授权号视角-to-授权售卖" style="stroke:#181818;stroke-width:1.0;"/><polygon fill="#181818" points="589.21,493.21,582.3844,486.11,584.5795,491.3235,579.366,493.5187,589.21,493.21" style="stroke:#181818;stroke-width:1.0;"/></g><!--MD5=[9cd5893ab5a11b9ae6d784a0f9a55f84]
link 多号商家视角 to 自建商品被授权售卖--><g id="link_多号商家视角_自建商品被授权售卖"><path d="M307,438.39 C307,451.44 307,469.86 307,484.33 " fill="none" id="多号商家视角-to-自建商品被授权售卖" style="stroke:#181818;stroke-width:1.0;"/><polygon fill="#181818" points="307,489.15,311,480.15,307,484.15,303,480.15,307,489.15" style="stroke:#181818;stroke-width:1.0;"/></g><!--MD5=[c0c317e82a8bd772b4ce4f20312a5661]
@startuml 一店多号

(*) - -> "用户进入生意通"
if "是否有自建商品？" then
- -> [true] "商家"
  if "所选时间段是否有授权关系？" then
  partition 新增视角 #LightGreen  {
    - -> [true] 多号商家视角
  }
  else
  - -> [false] 普通商家视角
  endif
else
- -> [false] "达人"
  if "是否为某个商家的授权号？" then
  partition 新增视角 #LightGreen  {
    - -> [true] 授权号视角
  }
  else
    - -> [false] 普通达人视角
endif

多号商家视角 -right-> [可以查看] 授权号视角

多号商家视角 - -> 分销他人
授权号视角 - -> 分销他人
普通达人视角 - -> 分销他人
普通商家视角 - -> 分销他人

多号商家视角 - -> 自建商品自卖
普通商家视角 - -> 自建商品自卖

多号商家视角 - -> 自建商品被分销
普通商家视角 - -> 自建商品被分销

多号商家视角 - -> 售卖三方商品
授权号视角 - -> 售卖三方商品
普通达人视角 - -> 售卖三方商品
普通商家视角 - -> 售卖三方商品

授权号视角 - -> 授权售卖

多号商家视角 - -> 自建商品被授权售卖


@enduml

PlantUML version 1.2022.7(Tue Aug 23 01:01:30 CST 2022)
(GPL source distribution)
Java Runtime: OpenJDK Runtime Environment
JVM: OpenJDK 64-Bit Server VM
Default Encoding: UTF-8
Language: zh
Country: CN
--></g></svg>