<?xml version="1.0" encoding="UTF-8" standalone="no"?><svg xmlns="http://www.w3.org/2000/svg" xmlns:xlink="http://www.w3.org/1999/xlink" contentStyleType="text/css" height="531px" preserveAspectRatio="none" style="width:516px;height:531px;background:#FFFFFF;" version="1.1" viewBox="0 0 516 531" width="516px" zoomAndPan="magnify"><defs/><g><!--MD5=[27503d4a615ca086b3dbcb311fd72257]
cluster 新增视角--><g id="cluster_新增视角"><polygon fill="#90EE90" points="115,369,177,369,184,391.4883,385,391.4883,385,454,115,454,115,369" style="stroke:#000000;stroke-width:1.5;"/><line style="stroke:#000000;stroke-width:1.5;" x1="115" x2="184" y1="391.4883" y2="391.4883"/><text fill="#000000" font-family="sans-serif" font-size="14" font-weight="bold" lengthAdjust="spacing" textLength="56" x="119" y="384.5352">新增视角</text></g><rect fill="#F1F1F1" height="34.1328" rx="12.5" ry="12.5" style="stroke:#181818;stroke-width:0.5;" width="92" x="277" y="404"/><text fill="#000000" font-family="sans-serif" font-size="12" lengthAdjust="spacing" textLength="72" x="287" y="425.6016">多号商家视角</text><rect fill="#F1F1F1" height="34.1328" rx="12.5" ry="12.5" style="stroke:#181818;stroke-width:0.5;" width="80" x="131" y="404"/><text fill="#000000" font-family="sans-serif" font-size="12" lengthAdjust="spacing" textLength="60" x="141" y="425.6016">授权号视角</text><ellipse cx="253" cy="16" fill="#222222" rx="10" ry="10" style="stroke:none;stroke-width:1.0;"/><rect fill="#F1F1F1" height="34.1328" rx="12.5" ry="12.5" style="stroke:#181818;stroke-width:0.5;" width="236" x="135" y="67"/><text fill="#000000" font-family="sans-serif" font-size="12" lengthAdjust="spacing" textLength="216" x="145" y="88.6016">用户进入数据看板、选择需要查看的时间</text><g id="elem_#5"><polygon fill="#F1F1F1" points="253,142,265,154,253,166,241,154,253,142" style="stroke:#181818;stroke-width:0.5;"/></g><rect fill="#F1F1F1" height="34.1328" rx="12.5" ry="12.5" style="stroke:#181818;stroke-width:0.5;" width="44" x="285" y="220"/><text fill="#000000" font-family="sans-serif" font-size="12" lengthAdjust="spacing" textLength="24" x="295" y="241.6016">商家</text><g id="elem_#10"><polygon fill="#F1F1F1" points="323,295,335,307,323,319,311,307,323,295" style="stroke:#181818;stroke-width:0.5;"/></g><rect fill="#F1F1F1" height="34.1328" rx="12.5" ry="12.5" style="stroke:#181818;stroke-width:0.5;" width="92" x="401" y="404"/><text fill="#000000" font-family="sans-serif" font-size="12" lengthAdjust="spacing" textLength="72" x="411" y="425.6016">普通商家视角</text><rect fill="#F1F1F1" height="34.1328" rx="12.5" ry="12.5" style="stroke:#181818;stroke-width:0.5;" width="44" x="199" y="220"/><text fill="#000000" font-family="sans-serif" font-size="12" lengthAdjust="spacing" textLength="24" x="209" y="241.6016">达人</text><g id="elem_#20"><polygon fill="#F1F1F1" points="171,295,183,307,171,319,159,307,171,295" style="stroke:#181818;stroke-width:0.5;"/></g><rect fill="#F1F1F1" height="34.1328" rx="12.5" ry="12.5" style="stroke:#181818;stroke-width:0.5;" width="92" x="7" y="404"/><text fill="#000000" font-family="sans-serif" font-size="12" lengthAdjust="spacing" textLength="72" x="17" y="425.6016">普通达人视角</text><rect fill="#F1F1F1" height="34.1328" rx="12.5" ry="12.5" style="stroke:#181818;stroke-width:0.5;" width="68" x="206" y="491"/><text fill="#000000" font-family="sans-serif" font-size="12" lengthAdjust="spacing" textLength="48" x="216" y="512.6016">分销他人</text><rect fill="#F1F1F1" height="34.1328" rx="12.5" ry="12.5" style="stroke:#181818;stroke-width:0.5;" width="92" x="294" y="491"/><text fill="#000000" font-family="sans-serif" font-size="12" lengthAdjust="spacing" textLength="72" x="304" y="512.6016">自建商品自卖</text><rect fill="#F1F1F1" height="34.1328" rx="12.5" ry="12.5" style="stroke:#181818;stroke-width:0.5;" width="104" x="406" y="491"/><text fill="#000000" font-family="sans-serif" font-size="12" lengthAdjust="spacing" textLength="84" x="416" y="512.6016">自建商品被分销</text><rect fill="#F1F1F1" height="34.1328" rx="12.5" ry="12.5" style="stroke:#181818;stroke-width:0.5;" width="92" x="94" y="491"/><text fill="#000000" font-family="sans-serif" font-size="12" lengthAdjust="spacing" textLength="72" x="104" y="512.6016">售卖三方商品</text><!--MD5=[c802f4b88f2f4408dced1fddfb6b8eec]
link start to 用户进入数据看板、选择需要查看的时间--><g id="link_start_用户进入数据看板、选择需要查看的时间"><path d="M253,26.46 C253,35.3 253,48.85 253,60.46 " fill="none" id="start-to-用户进入数据看板、选择需要查看的时间" style="stroke:#181818;stroke-width:1.0;"/><polygon fill="#181818" points="253,65.16,257,56.16,253,60.16,249,56.16,253,65.16" style="stroke:#181818;stroke-width:1.0;"/></g><!--MD5=[43a8508cb79a0c8870f94be8cf023b36]
link 用户进入数据看板、选择需要查看的时间 to #5--><g id="link_用户进入数据看板、选择需要查看的时间_#5"><path d="M253,101.46 C253,111.65 253,124.73 253,135.17 " fill="none" id="用户进入数据看板、选择需要查看的时间-to-#5" style="stroke:#181818;stroke-width:1.0;"/><polygon fill="#181818" points="253,140.07,257,131.07,253,135.07,249,131.07,253,140.07" style="stroke:#181818;stroke-width:1.0;"/><text fill="#000000" font-family="sans-serif" font-size="11" lengthAdjust="spacing" textLength="88" x="144.65" y="131.9164">是否有自建商品？</text></g><!--MD5=[5eb99413686dd05c64eb1b5ff3ae052a]
link #5 to 商家--><g id="link_#5_商家"><path d="M257.6,161.91 C265.28,173.42 280.99,196.99 292.64,214.47 " fill="none" id="#5-to-商家" style="stroke:#181818;stroke-width:1.0;"/><polygon fill="#181818" points="295.28,218.42,293.6159,208.7127,292.5065,214.2597,286.9595,213.1503,295.28,218.42" style="stroke:#181818;stroke-width:1.0;"/><text fill="#000000" font-family="sans-serif" font-size="11" lengthAdjust="spacing" textLength="22" x="282" y="197.6348">true</text></g><!--MD5=[76c75161aaa556004d236282a76180d1]
link 商家 to #10--><g id="link_商家_#10"><path d="M310.87,254.46 C313.45,265.4 316.8,279.67 319.33,290.42 " fill="none" id="商家-to-#10" style="stroke:#181818;stroke-width:1.0;"/><polygon fill="#181818" points="320.44,295.13,322.2786,285.4543,319.298,290.2622,314.4901,287.2815,320.44,295.13" style="stroke:#181818;stroke-width:1.0;"/><text fill="#000000" font-family="sans-serif" font-size="11" lengthAdjust="spacing" textLength="143" x="342.8762" y="290.1595">所选时间段是否有授权关系？</text></g><!--MD5=[7946680bc42bff2ffafb8543c4a88dfc]
link #10 to 多号商家视角--><g id="link_#10_多号商家视角"><path d="M323,319.56 C323,337.85 323,373.79 323,397.35 " fill="none" id="#10-to-多号商家视角" style="stroke:#181818;stroke-width:1.0;"/><polygon fill="#181818" points="323,402.12,327,393.12,323,397.12,319,393.12,323,402.12" style="stroke:#181818;stroke-width:1.0;"/><text fill="#000000" font-family="sans-serif" font-size="11" lengthAdjust="spacing" textLength="22" x="324" y="350.6348">true</text></g><!--MD5=[8188f0d301ecee9733fad45bb12a4156]
link #10 to 普通商家视角--><g id="link_#10_普通商家视角"><path d="M328.87,313.26 C339.49,322.76 362.58,343.47 382,361 C396.08,373.71 411.84,388.01 424.31,399.35 " fill="none" id="#10-to-普通商家视角" style="stroke:#181818;stroke-width:1.0;"/><polygon fill="#181818" points="427.97,402.68,424.0116,393.6616,424.2742,399.3124,418.6234,399.5749,427.97,402.68" style="stroke:#181818;stroke-width:1.0;"/><text fill="#000000" font-family="sans-serif" font-size="11" lengthAdjust="spacing" textLength="25" x="373" y="350.6348">false</text></g><!--MD5=[02dc7bb43c717d09161ed24b88d36632]
link #5 to 达人--><g id="link_#5_达人"><path d="M247.52,160.66 C242.18,166.51 234.26,176.16 230,186 C226.32,194.52 224.14,204.47 222.86,213.25 " fill="none" id="#5-to-达人" style="stroke:#181818;stroke-width:1.0;"/><polygon fill="#181818" points="222.23,218.19,227.3304,209.7647,222.859,213.2297,219.3939,208.7583,222.23,218.19" style="stroke:#181818;stroke-width:1.0;"/><text fill="#000000" font-family="sans-serif" font-size="11" lengthAdjust="spacing" textLength="25" x="231" y="197.6348">false</text></g><!--MD5=[fda3d2d081091f9a0a9786560162d17a]
link 达人 to #20--><g id="link_达人_#20"><path d="M208.9,254.46 C199.84,266.78 187.67,283.33 179.6,294.31 " fill="none" id="达人-to-#20" style="stroke:#181818;stroke-width:1.0;"/><polygon fill="#181818" points="176.68,298.28,185.2301,293.3918,179.6387,294.2493,178.7811,288.6579,176.68,298.28" style="stroke:#181818;stroke-width:1.0;"/><text fill="#000000" font-family="sans-serif" font-size="11" lengthAdjust="spacing" textLength="132" x="191.3228" y="293.1632">是否为某个商家的授权号？</text></g><!--MD5=[454cb772c1ec0a0814dd9e016d214900]
link #20 to 授权号视角--><g id="link_#20_授权号视角"><path d="M171,319.56 C171,337.85 171,373.79 171,397.35 " fill="none" id="#20-to-授权号视角" style="stroke:#181818;stroke-width:1.0;"/><polygon fill="#181818" points="171,402.12,175,393.12,171,397.12,167,393.12,171,402.12" style="stroke:#181818;stroke-width:1.0;"/><text fill="#000000" font-family="sans-serif" font-size="11" lengthAdjust="spacing" textLength="22" x="172" y="350.6348">true</text></g><!--MD5=[73582a6a120470b6e2e8a7c9a77dd7fd]
link #20 to 普通达人视角--><g id="link_#20_普通达人视角"><path d="M165.31,313.4 C149.21,328.69 102.69,372.83 74.83,399.28 " fill="none" id="#20-to-普通达人视角" style="stroke:#181818;stroke-width:1.0;"/><polygon fill="#181818" points="71.29,402.64,80.572,399.347,74.9171,399.1985,75.0656,393.5436,71.29,402.64" style="stroke:#181818;stroke-width:1.0;"/><text fill="#000000" font-family="sans-serif" font-size="11" lengthAdjust="spacing" textLength="25" x="137" y="350.6348">false</text></g><!--MD5=[0104edd6cfe2ab877893d792883897c5]
link 多号商家视角 to 授权号视角--><g id="link_多号商家视角_授权号视角"><path d="M276.55,421 C257.84,421 236.29,421 217.57,421 " fill="none" id="多号商家视角-to-授权号视角" style="stroke:#181818;stroke-width:1.0;"/><polygon fill="#181818" points="212.85,421,221.85,425,217.85,421,221.85,417,212.85,421" style="stroke:#181818;stroke-width:1.0;"/><text fill="#000000" font-family="sans-serif" font-size="11" lengthAdjust="spacing" textLength="44" x="222" y="415.6348">可以查看</text></g><!--MD5=[059f6fbeff8b08c8c361464d73a93904]
link 多号商家视角 to 分销他人--><g id="link_多号商家视角_分销他人"><path d="M309.52,438.32 C301.27,448.06 290.34,460.53 280,471 C274.87,476.19 269.15,481.57 263.67,486.53 " fill="none" id="多号商家视角-to-分销他人" style="stroke:#181818;stroke-width:1.0;"/><polygon fill="#181818" points="260.27,489.58,269.6413,486.5504,263.9928,486.2423,264.3009,480.5938,260.27,489.58" style="stroke:#181818;stroke-width:1.0;"/></g><!--MD5=[6b139d6b7915ead064229e57906b532c]
link 授权号视角 to 分销他人--><g id="link_授权号视角_分销他人"><path d="M184.3,438.39 C195.28,451.91 210.93,471.19 222.85,485.87 " fill="none" id="授权号视角-to-分销他人" style="stroke:#181818;stroke-width:1.0;"/><polygon fill="#181818" points="225.78,489.49,223.2091,479.9826,222.627,485.6094,217.0002,485.0273,225.78,489.49" style="stroke:#181818;stroke-width:1.0;"/></g><!--MD5=[83d8135ec2e13ace89afe73ccc4f9c10]
link 普通达人视角 to 分销他人--><g id="link_普通达人视角_分销他人"><path d="M77.04,438.38 C89.03,446.13 103.94,455.16 118,462 C121.93,463.91 165.85,480.01 199.87,492.41 " fill="none" id="普通达人视角-to-分销他人" style="stroke:#181818;stroke-width:1.0;"/><polygon fill="#181818" points="204.25,494.01,197.1655,487.1682,199.5527,492.2967,194.4242,494.6839,204.25,494.01" style="stroke:#181818;stroke-width:1.0;"/></g><!--MD5=[cdf3660ef2200ffe19d0ddc9ecb7cdb3]
link 普通商家视角 to 分销他人--><g id="link_普通商家视角_分销他人"><path d="M432.33,438.17 C421.44,449.15 405.66,463.06 389,471 C346.12,491.44 329.8,478.4 284,491 C282.82,491.32 281.64,491.66 280.44,492.02 " fill="none" id="普通商家视角-to-分销他人" style="stroke:#181818;stroke-width:1.0;"/><polygon fill="#181818" points="275.86,493.44,285.6423,494.5835,280.6339,491.9535,283.2639,486.9452,275.86,493.44" style="stroke:#181818;stroke-width:1.0;"/></g><!--MD5=[0ed67e9c09081127b955b6f07d748370]
link 多号商家视角 to 自建商品自卖--><g id="link_多号商家视角_自建商品自卖"><path d="M326.28,438.39 C328.89,451.44 332.57,469.86 335.47,484.33 " fill="none" id="多号商家视角-to-自建商品自卖" style="stroke:#181818;stroke-width:1.0;"/><polygon fill="#181818" points="336.44,489.18,338.5865,479.5679,335.4539,484.2782,330.7436,481.1456,336.44,489.18" style="stroke:#181818;stroke-width:1.0;"/></g><!--MD5=[c610cee5cbe5297b5124e8fa2b7284a2]
link 授权号视角 to 自建商品自卖--><g id="link_授权号视角_自建商品自卖"><path d="M203.58,438.39 C231.55,452.45 271.9,472.75 301.47,487.62 " fill="none" id="授权号视角-to-自建商品自卖" style="stroke:#181818;stroke-width:1.0;"/><polygon fill="#181818" points="305.88,489.84,299.6385,482.2214,301.4136,487.5925,296.0425,489.3676,305.88,489.84" style="stroke:#181818;stroke-width:1.0;"/></g><!--MD5=[168fd1c8e0ef91c4cefc88be8c059268]
link 普通商家视角 to 自建商品自卖--><g id="link_普通商家视角_自建商品自卖"><path d="M439.71,438.22 C434.36,448.66 426.25,461.93 416,471 C408.74,477.43 400.12,482.95 391.35,487.59 " fill="none" id="普通商家视角-to-自建商品自卖" style="stroke:#181818;stroke-width:1.0;"/><polygon fill="#181818" points="386.92,489.84,396.7557,489.3301,391.3778,487.5755,393.1324,482.1976,386.92,489.84" style="stroke:#181818;stroke-width:1.0;"/></g><!--MD5=[bcdc8915a05c59a24bfad9174cd4ca49]
link 多号商家视角 to 自建商品被分销--><g id="link_多号商家视角_自建商品被分销"><path d="M349.03,438.39 C371.16,452.32 403,472.37 426.56,487.2 " fill="none" id="多号商家视角-to-自建商品被分销" style="stroke:#181818;stroke-width:1.0;"/><polygon fill="#181818" points="430.77,489.86,425.2778,481.6847,426.5364,487.1997,421.0214,488.4584,430.77,489.86" style="stroke:#181818;stroke-width:1.0;"/></g><!--MD5=[692e9bc3a66a59bb941b72b96de9e7fb]
link 普通商家视角 to 自建商品被分销--><g id="link_普通商家视角_自建商品被分销"><path d="M449.12,438.39 C450.81,451.44 453.19,469.86 455.07,484.33 " fill="none" id="普通商家视角-to-自建商品被分销" style="stroke:#181818;stroke-width:1.0;"/><polygon fill="#181818" points="455.69,489.16,458.5028,479.7213,455.0488,484.2013,450.5688,480.7473,455.69,489.16" style="stroke:#181818;stroke-width:1.0;"/></g><!--MD5=[8010484b622aea818835c015f17e5dfc]
link 多号商家视角 to 售卖三方商品--><g id="link_多号商家视角_售卖三方商品"><path d="M287.72,438.39 C257.31,452.51 213.37,472.92 181.33,487.8 " fill="none" id="多号商家视角-to-售卖三方商品" style="stroke:#181818;stroke-width:1.0;"/><polygon fill="#181818" points="176.86,489.88,186.7076,489.7226,181.396,487.7765,183.3421,482.465,176.86,489.88" style="stroke:#181818;stroke-width:1.0;"/></g><!--MD5=[749e788f8ec75f9190758424b4a10a9f]
link 授权号视角 to 售卖三方商品--><g id="link_授权号视角_售卖三方商品"><path d="M165.02,438.39 C160.22,451.56 153.42,470.19 148.13,484.72 " fill="none" id="授权号视角-to-售卖三方商品" style="stroke:#181818;stroke-width:1.0;"/><polygon fill="#181818" points="146.48,489.24,153.3287,482.1622,148.1979,484.5444,145.8157,479.4136,146.48,489.24" style="stroke:#181818;stroke-width:1.0;"/></g><!--MD5=[cb2c2fbe7c6909936fb1d1975eec604d]
link 普通达人视角 to 售卖三方商品--><g id="link_普通达人视角_售卖三方商品"><path d="M69.77,438.39 C83.74,452.03 103.69,471.53 118.77,486.26 " fill="none" id="普通达人视角-to-售卖三方商品" style="stroke:#181818;stroke-width:1.0;"/><polygon fill="#181818" points="122.19,489.6,118.5431,480.4512,118.6118,486.1077,112.9554,486.1764,122.19,489.6" style="stroke:#181818;stroke-width:1.0;"/></g><!--MD5=[c1c995a8ce842ae3ecd6458ba0f8cc2d]
link 普通商家视角 to 售卖三方商品--><g id="link_普通商家视角_售卖三方商品"><path d="M425.27,438.4 C413.15,446.75 397.42,456.32 382,462 C303.5,490.94 277.71,473.03 196,491 C194.81,491.26 193.62,491.53 192.41,491.81 " fill="none" id="普通商家视角-to-售卖三方商品" style="stroke:#181818;stroke-width:1.0;"/><polygon fill="#181818" points="187.81,492.93,197.5019,494.6815,192.6674,491.7442,195.6046,486.9097,187.81,492.93" style="stroke:#181818;stroke-width:1.0;"/></g><!--MD5=[03fd877413a3a46e9054e3fcec5ad853]
@startuml 微前端加载时序

(*) - -> "用户进入数据看板、选择需要查看的时间"
if "是否有自建商品？" then
- -> [true] "商家"
  if "所选时间段是否有授权关系？" then
  partition 新增视角 #LightGreen  {
    - -> [true] 多号商家视角
  }
  else
  - -> [false] 普通商家视角
  endif
else
- -> [false] "达人"
  if "是否为某个商家的授权号？" then
  partition 新增视角 #LightGreen  {
    - -> [true] 授权号视角
  }
  else
    - -> [false] 普通达人视角
endif

多号商家视角 -right-> [可以查看] 授权号视角

多号商家视角 - -> 分销他人
授权号视角 - -> 分销他人
普通达人视角 - -> 分销他人
普通商家视角 - -> 分销他人

多号商家视角 - -> 自建商品自卖
授权号视角 - -> 自建商品自卖
普通商家视角 - -> 自建商品自卖

多号商家视角 - -> 自建商品被分销
普通商家视角 - -> 自建商品被分销

多号商家视角 - -> 售卖三方商品
授权号视角 - -> 售卖三方商品
普通达人视角 - -> 售卖三方商品
普通商家视角 - -> 售卖三方商品


@enduml

PlantUML version 1.2022.7(Tue Aug 23 01:01:30 CST 2022)
(GPL source distribution)
Java Runtime: OpenJDK Runtime Environment
JVM: OpenJDK 64-Bit Server VM
Default Encoding: UTF-8
Language: zh
Country: CN
--></g></svg>